<svg width="24" height="24" viewBox="0 0 24 24" fill="none" xmlns="http://www.w3.org/2000/svg">
<path d="M21.447 11.1055L3.44699 2.10546C3.08664 1.92382 2.65011 1.97851 2.34445 2.24413C2.03879 2.50976 1.92355 2.93261 2.05148 3.3164L4.6127 11H11.9997C12.5525 11 12.9997 11.4473 12.9997 12C12.9997 12.5527 12.5525 13 11.9997 13H4.6127L2.05148 20.6836C1.92355 21.0674 2.03879 21.4902 2.34445 21.7559C2.53 21.917 2.76437 22 2.99972 22C3.15207 22 3.30539 21.9648 3.44699 21.8945L21.447 12.8945C21.7859 12.7246 21.9997 12.3789 21.9997 12C21.9997 11.6211 21.7859 11.2754 21.447 11.1055Z" fill="#101010"/>
</svg>
