<svg width="48" height="48" viewBox="0 0 48 48" fill="none" xmlns="http://www.w3.org/2000/svg">
<path d="M25.9697 13.6271C26.0312 14.2996 25.9954 15.0041 25.9966 15.6798L26.0015 19.4472L26.0075 22.2485C26.0083 22.6795 26.051 23.1626 25.9984 23.5898C26.0018 24.4813 26.0802 31.7753 25.9764 32.0425C25.964 32.0253 25.9485 32.0099 25.9392 31.9909C25.8968 31.9041 25.9096 26.4968 25.9302 25.9356C25.8749 24.4727 25.9236 22.9886 25.9256 21.5239C25.9208 18.8915 25.9355 16.2592 25.9697 13.6271Z" fill="#66676C"/>
<path d="M22.066 41.3329C22.3184 41.3361 22.5708 41.3345 22.8231 41.328C23.0755 41.3215 23.3276 41.3102 23.5795 41.2941C23.8314 41.2779 24.0829 41.2568 24.334 41.231C24.5851 41.2051 24.8356 41.1744 25.0855 41.1389C25.3355 41.1033 25.5846 41.063 25.833 41.0179C26.0814 40.9728 26.3288 40.9229 26.5753 40.8683C26.8218 40.8137 27.0671 40.7543 27.3113 40.6902C27.5555 40.6261 27.7984 40.5573 28.0399 40.4839C32.5924 39.1339 35.8959 36.4672 39.2185 33.1695C39.8556 32.5469 40.4737 31.906 41.0728 31.2467C41.5618 30.7007 42.0327 30.1022 42.5544 29.5898C40.9853 34.4527 37.7733 38.6262 33.1883 40.9699C30.9788 42.0994 28.2199 42.8882 25.7282 42.8726C24.301 42.8636 22.9313 42.6382 21.5419 42.3279C21.4119 42.1082 21.5969 41.6381 21.5871 41.3574L22.066 41.3329Z" fill="white"/>
<path d="M27.8162 7.94769C30.6015 8.29442 33.4144 9.54082 35.6686 11.1933C35.7657 11.2646 35.862 11.3369 35.9577 11.4101C36.0534 11.4834 36.1483 11.5576 36.2426 11.6327C36.3368 11.7078 36.4303 11.7839 36.523 11.8609C36.6157 11.9378 36.7077 12.0156 36.7989 12.0944C36.8901 12.1732 36.9805 12.2528 37.0702 12.3334C37.1598 12.4139 37.2486 12.4954 37.3367 12.5777C37.4247 12.66 37.5119 12.7432 37.5984 12.8272C37.6848 12.9112 37.7704 12.9961 37.8551 13.0818C37.9399 13.1675 38.0238 13.254 38.1069 13.3415C38.1899 13.4288 38.2721 13.517 38.3534 13.606C38.4347 13.6949 38.5152 13.7847 38.5948 13.8753C38.6743 13.9659 38.753 14.0572 38.8307 14.1493C38.9085 14.2415 38.9854 14.3343 39.0613 14.428C39.1373 14.5217 39.2123 14.616 39.2864 14.7111C39.3605 14.8063 39.4337 14.9021 39.5059 14.9987C39.5781 15.0952 39.6494 15.1925 39.7198 15.2905C39.7901 15.3884 39.8594 15.4871 39.9278 15.5863C39.9962 15.6857 40.0636 15.7857 40.13 15.8863C40.1965 15.987 40.2619 16.0883 40.3263 16.1902C40.3908 16.2922 40.4542 16.3948 40.5166 16.4979C40.579 16.6011 40.6405 16.7049 40.7009 16.8093C40.7613 16.9137 40.8206 17.0187 40.8789 17.1243C40.9373 17.2299 40.9945 17.336 41.0508 17.4427C41.1071 17.5494 41.1623 17.6566 41.2164 17.7645C41.2706 17.8722 41.3237 17.9806 41.3757 18.0894C41.4277 18.1983 41.4787 18.3076 41.5285 18.4175C41.5784 18.5273 41.6273 18.6376 41.675 18.7484C41.7227 18.8592 41.7693 18.9705 41.8149 19.0822C41.8604 19.1939 41.9049 19.3061 41.9482 19.4187C41.9915 19.5313 42.0338 19.6443 42.0749 19.7577C42.1161 19.8711 42.1561 19.985 42.1949 20.0992C42.2338 20.2134 42.2716 20.328 42.3082 20.443C42.7059 21.7149 42.9412 23.0119 43.1451 24.3267C42.873 24.5152 42.5768 24.6723 42.2897 24.8368C41.7977 25.1082 41.3101 25.3872 40.8269 25.6741C40.7291 23.0178 40.1045 20.4682 38.7493 18.1596C38.4123 17.5854 38.0615 17.0081 37.6642 16.4734C37.5973 16.3832 37.5295 16.2938 37.4606 16.2051C37.3918 16.1164 37.3221 16.0285 37.2514 15.9412C37.1807 15.854 37.1091 15.7675 37.0366 15.6818C36.9642 15.5961 36.8908 15.5111 36.8165 15.427C36.7422 15.3428 36.667 15.2595 36.5909 15.1769C36.5149 15.0943 36.438 15.0126 36.3602 14.9317C36.2824 14.8508 36.2038 14.7706 36.1243 14.6914C36.0448 14.6122 35.9645 14.5338 35.8834 14.4562C35.8023 14.3786 35.7203 14.302 35.6375 14.2262C35.5548 14.1503 35.4712 14.0754 35.3869 14.0014C35.3026 13.9274 35.2175 13.8542 35.1316 13.782C35.0458 13.7098 34.9591 13.6385 34.8717 13.5681C34.7843 13.4977 34.6962 13.4282 34.6074 13.3597C34.5185 13.2912 34.429 13.2236 34.3387 13.157C34.2484 13.0904 34.1574 13.0247 34.0657 12.9601C33.9741 12.8954 33.8817 12.8317 33.7887 12.769C33.6957 12.7063 33.602 12.6446 33.5077 12.5838C33.4134 12.5231 33.3184 12.4634 33.2229 12.4047C33.1273 12.346 33.0311 12.2883 32.9343 12.2316C32.8375 12.175 32.7401 12.1193 32.6422 12.0647C32.5442 12.0101 32.4457 11.9566 32.3465 11.9041C32.2475 11.8516 32.1478 11.8001 32.0476 11.7497C31.9474 11.6993 31.8467 11.65 31.7455 11.6018C31.6442 11.5535 31.5425 11.5064 31.4403 11.4603C31.338 11.4141 31.2353 11.3691 31.1321 11.3253C31.0289 11.2813 30.9253 11.2385 30.8212 11.1968C30.7172 11.1551 30.6126 11.1145 30.5077 11.075C30.4028 11.0355 30.2974 10.9972 30.1916 10.9599C30.0859 10.9227 29.9798 10.8866 29.8733 10.8516C29.7667 10.8166 29.6599 10.7827 29.5526 10.75C29.4454 10.7172 29.3378 10.6857 29.2299 10.6552C29.122 10.6248 29.0138 10.5955 28.9053 10.5673C28.5629 9.6854 28.179 8.8211 27.8162 7.94769Z" fill="white"/>
<path d="M24.8809 10.3262C24.8872 10.3758 24.8924 10.4235 24.8935 10.4735C24.9101 11.2966 24.7199 12.5349 24.6052 13.3628C24.0184 17.6002 22.4412 21.8728 20.31 25.5711C19.556 26.8795 18.6923 28.1394 17.7911 29.3497C17.0646 30.3253 16.3199 31.2645 15.4919 32.1561C14.9653 32.7231 13.2796 34.4919 12.696 34.8134C12.0621 35.1627 7.66369 35.1946 6.71169 35.2282C6.71909 35.13 7.00387 34.9528 7.09461 34.8836C9.05809 33.3856 10.9658 31.8576 12.7316 30.1257C17.2097 25.734 21.0382 20.7599 23.3668 14.8879C23.9617 13.3878 24.4063 11.8646 24.8809 10.3262Z" fill="white"/>
<path d="M25.156 15.3942C25.2322 15.9262 25.1756 16.5269 25.1736 17.0667L25.1664 20.3058L25.1696 32.2915C24.7615 32.364 24.351 32.5113 23.9505 32.6242C23.2106 32.8361 22.4682 33.0387 21.7233 33.2321C19.3679 33.8484 16.7695 34.4095 14.3489 34.6817C14.3533 34.5201 14.8198 34.1396 14.9485 34.0116C15.1969 33.7605 15.4419 33.5059 15.6834 33.248C15.9249 32.9901 16.1627 32.7289 16.397 32.4644C16.6313 32.1999 16.8619 31.9322 17.0888 31.6613C17.3157 31.3904 17.5389 31.1164 17.7582 30.8394C17.9776 30.5623 18.1931 30.2823 18.4047 29.9992C18.6164 29.7162 18.8241 29.4303 19.0279 29.1415C19.2317 28.8528 19.4314 28.5612 19.6271 28.2669C19.8229 27.9726 20.0146 27.6756 20.2021 27.376C20.3897 27.0764 20.573 26.7742 20.7523 26.4694C20.9315 26.1647 21.1065 25.8576 21.2773 25.5481C21.448 25.2386 21.6145 24.9267 21.7767 24.6125C21.9389 24.2984 22.0967 23.982 22.2502 23.6635C22.4036 23.3449 22.5527 23.0243 22.6973 22.7017C22.8419 22.379 22.9821 22.0544 23.1178 21.7279C23.2535 21.4014 23.3847 21.073 23.5113 20.7429C23.638 20.4127 23.76 20.0808 23.8775 19.7473C24.38 18.3168 24.7331 16.8481 25.156 15.3942Z" fill="white"/>
<path d="M24.0814 7.88428C24.3014 7.85915 24.5271 7.86671 24.7485 7.86541L24.1066 10.2913C23.7405 10.3341 23.3762 10.389 23.0137 10.4558C22.6512 10.5227 22.2912 10.6015 21.9338 10.6921C21.5765 10.7827 21.2225 10.885 20.8719 10.999C20.5213 11.113 20.1747 11.2384 19.8323 11.3753C19.7146 11.4227 19.5974 11.4717 19.4807 11.5221C19.3641 11.5724 19.2482 11.6242 19.1328 11.6775C19.0175 11.7307 18.9029 11.7854 18.7889 11.8415C18.6749 11.8976 18.5617 11.955 18.4491 12.0139C18.3366 12.0728 18.2247 12.1331 18.1137 12.1948C18.0026 12.2564 17.8923 12.3194 17.7828 12.3838C17.6733 12.4482 17.5646 12.514 17.4567 12.5811C17.3488 12.6482 17.2417 12.7166 17.1354 12.7863C17.0293 12.856 16.9239 12.9271 16.8194 12.9994C16.715 13.0717 16.6115 13.1454 16.5088 13.2202C16.4061 13.2951 16.3044 13.3713 16.2036 13.4488C16.1028 13.5262 16.0031 13.6048 15.9042 13.6847C15.8054 13.7646 15.7075 13.8457 15.6107 13.928C15.5138 14.0103 15.418 14.0938 15.3232 14.1785C15.2285 14.2632 15.1347 14.349 15.0421 14.436C14.9494 14.5231 14.8578 14.6112 14.7673 14.7004C14.6768 14.7897 14.5874 14.8801 14.4991 14.9716C14.4109 15.0631 14.3237 15.1557 14.2378 15.2494C14.1517 15.343 14.0669 15.4377 13.9832 15.5335C13.8996 15.6292 13.8171 15.726 13.7359 15.8238C13.6546 15.9215 13.5745 16.0203 13.4957 16.1201C13.4168 16.2199 13.3392 16.3206 13.2628 16.4223C13.1865 16.524 13.1114 16.6266 13.0375 16.7301C12.9636 16.8337 12.8911 16.9382 12.8199 17.0435C12.7486 17.1489 12.6786 17.2551 12.61 17.3622C12.5414 17.4692 12.474 17.5771 12.408 17.6859C12.342 17.7946 12.2774 17.9042 12.2141 18.0145C12.1508 18.1249 12.0889 18.236 12.0283 18.3479C11.9678 18.4598 11.9086 18.5724 11.8508 18.6857C11.793 18.7991 11.7367 18.9131 11.6817 19.0278C11.6267 19.1426 11.5731 19.258 11.521 19.374C11.4689 19.4902 11.4182 19.6068 11.3689 19.7241C11.3305 19.8133 11.2929 19.9028 11.2562 19.9927C11.2195 20.0827 11.1837 20.1729 11.1489 20.2635C11.114 20.3541 11.08 20.4451 11.0469 20.5365C11.0138 20.6277 10.9817 20.7194 10.9505 20.8113C10.9193 20.9033 10.889 20.9955 10.8596 21.0881C10.8302 21.1807 10.8017 21.2735 10.7742 21.3667C10.7467 21.4599 10.7201 21.5532 10.6945 21.6469C10.6689 21.7406 10.6442 21.8345 10.6204 21.9286C10.5966 22.0228 10.5738 22.1172 10.552 22.2118C10.5301 22.3065 10.5092 22.4014 10.4892 22.4964C10.4692 22.5914 10.4502 22.6867 10.4322 22.7821C10.4141 22.8775 10.397 22.9731 10.3808 23.0689C10.3647 23.1647 10.3495 23.2606 10.3353 23.3567C10.321 23.4528 10.3078 23.549 10.2954 23.6454C10.2832 23.7417 10.2718 23.8382 10.2614 23.9348C10.2511 24.0314 10.2417 24.1281 10.2332 24.2248C10.2248 24.3216 10.2174 24.4184 10.2109 24.5153C10.2044 24.6123 10.1989 24.7092 10.1943 24.8063C10.1897 24.9033 10.1862 25.0004 10.1836 25.0975C10.181 25.1946 10.1793 25.2917 10.1787 25.3889C10.178 25.486 10.1783 25.5831 10.1796 25.6802C10.1809 25.7774 10.1832 25.8744 10.1864 25.9715C10.1896 26.0686 10.1939 26.1657 10.199 26.2627C10.2042 26.3597 10.2104 26.4566 10.2175 26.5535C10.2246 26.6504 10.2327 26.7472 10.2417 26.8439C10.2508 26.9406 10.2608 27.0372 10.2718 27.1337C10.2828 27.2302 10.2948 27.3266 10.3077 27.4229C10.3206 27.5192 10.3345 27.6153 10.3494 27.7112C10.3642 27.8073 10.38 27.9031 10.3968 27.9987C10.4136 28.0944 10.4313 28.1899 10.45 28.2852C10.4687 28.3805 10.4883 28.4756 10.5089 28.5706C10.5295 28.6655 10.551 28.7602 10.5735 28.8547C10.7156 29.465 10.8784 30.0836 11.1101 30.6664C10.4925 31.1275 9.9266 31.6543 9.35786 32.1735L9.23057 32.2572C9.21632 32.2455 9.1996 32.2363 9.18775 32.2221C9.06911 32.08 8.98755 31.7197 8.92567 31.539C8.39871 29.9999 8.04849 28.4839 7.90165 26.8587C7.88934 26.7175 7.87872 26.5761 7.86985 26.4347C7.86097 26.2932 7.85386 26.1516 7.84845 26.01C7.84304 25.8683 7.83941 25.7266 7.83757 25.5849C7.83567 25.4431 7.8355 25.3014 7.83711 25.1597C7.83871 25.0179 7.84208 24.8762 7.84715 24.7345C7.85222 24.5928 7.85906 24.4512 7.86764 24.3097C7.87622 24.1682 7.88653 24.0269 7.89861 23.8857C7.91066 23.7444 7.92448 23.6033 7.94003 23.4624C7.95555 23.3215 7.9728 23.1808 7.99182 23.0403C8.01081 22.8999 8.0315 22.7597 8.05396 22.6197C8.07646 22.4797 8.10062 22.3401 8.12649 22.2007C8.15238 22.0613 8.17998 21.9223 8.20932 21.7836C8.23862 21.6449 8.26966 21.5066 8.3024 21.3687C8.33507 21.2308 8.36947 21.0933 8.40558 20.9562C8.44169 20.8192 8.47947 20.6826 8.51895 20.5465C8.55843 20.4104 8.59955 20.2748 8.64237 20.1396C8.68515 20.0045 8.72964 19.8699 8.77576 19.736C8.82188 19.6019 8.86964 19.4685 8.91906 19.3357C8.96852 19.2029 9.01955 19.0707 9.07218 18.9391C9.12488 18.8076 9.17914 18.6767 9.23501 18.5465C9.29091 18.4162 9.34841 18.2868 9.40745 18.158C9.46655 18.0292 9.52722 17.9011 9.58947 17.7738C9.65164 17.6465 9.71545 17.52 9.78083 17.3943C9.84617 17.2686 9.91305 17.1437 9.98147 17.0196C10.0499 16.8956 10.1198 16.7724 10.1913 16.6501C10.2627 16.5278 10.3357 16.4063 10.4101 16.2858C10.4846 16.1653 10.5605 16.0457 10.6379 15.9271C10.7153 15.8085 10.7941 15.6908 10.8744 15.5741C10.9547 15.4574 11.0364 15.3418 11.1196 15.2271C11.2027 15.1125 11.2872 14.9988 11.3731 14.8863C11.4591 14.7737 11.5464 14.6622 11.635 14.5518C11.7237 14.4413 11.8137 14.3321 11.9051 14.2239C12 14.1119 12.0962 14.0011 12.1937 13.8914C12.2914 13.7818 12.3902 13.6733 12.4904 13.566C12.5906 13.4588 12.6921 13.3528 12.7948 13.248C12.8976 13.1432 13.0016 13.0396 13.1068 12.9374C13.2121 12.8351 13.3186 12.7342 13.4263 12.6345C13.5339 12.5348 13.6428 12.4364 13.7529 12.3393C13.863 12.2423 13.9742 12.1466 14.0866 12.0523C14.1989 11.958 14.3125 11.865 14.4271 11.7734C14.5417 11.6818 14.6575 11.5917 14.7743 11.5029C14.8911 11.4141 15.0089 11.3268 15.1278 11.2409C15.2468 11.155 15.3667 11.0706 15.4877 10.9876C15.6087 10.9046 15.7306 10.8231 15.8535 10.7431C15.9765 10.663 16.1003 10.5845 16.2251 10.5075C16.35 10.4305 16.4757 10.355 16.6024 10.281C16.729 10.2071 16.8565 10.1346 16.9849 10.0638C17.1134 9.99297 17.2426 9.92368 17.3727 9.85595C17.5028 9.78823 17.6336 9.72207 17.7653 9.65749C17.897 9.59295 18.0294 9.53004 18.1626 9.4687C18.2958 9.4074 18.4297 9.34771 18.5643 9.28962C18.699 9.23156 18.8343 9.17515 18.9703 9.12034C19.1063 9.06556 19.2429 9.01246 19.3802 8.96096C19.5175 8.90946 19.6554 8.85971 19.7939 8.81159C19.9324 8.76344 20.0714 8.71703 20.2111 8.67229C20.3506 8.62752 20.4908 8.58449 20.6314 8.54313C20.7721 8.50181 20.9132 8.46216 21.0548 8.42424C21.1964 8.38637 21.3384 8.35019 21.4809 8.31569C21.6234 8.28126 21.7663 8.24854 21.9096 8.21759C22.0529 8.18657 22.1965 8.15732 22.3405 8.12982C22.4845 8.10231 22.6287 8.07658 22.7733 8.05259C22.918 8.0286 23.0628 8.00638 23.2079 7.98593C23.3531 7.96542 23.4984 7.94672 23.6441 7.92975C23.7897 7.91282 23.9355 7.89766 24.0814 7.88428Z" fill="white"/>
<path d="M47.9867 22.0025L48 22.0417C47.689 22.3396 47.3748 22.6341 47.0573 22.9253C46.74 23.2163 46.4194 23.5039 46.0957 23.788C45.7721 24.072 45.4454 24.3526 45.1156 24.6295C44.7859 24.9064 44.4531 25.1797 44.1174 25.4494C43.7817 25.7191 43.4431 25.985 43.1016 26.2473C42.7601 26.5096 42.4158 26.7681 42.0686 27.0228C41.7215 27.2775 41.3717 27.5284 41.0191 27.7755C40.6665 28.0226 40.3113 28.2658 39.9535 28.5051C39.5956 28.7444 39.2352 28.9798 38.8722 29.2112C38.5092 29.4426 38.1437 29.6701 37.7758 29.8935C37.4078 30.117 37.0375 30.3364 36.6648 30.5517C36.2921 30.767 35.9171 30.9783 35.5399 31.1854C35.1625 31.3926 34.783 31.5956 34.4013 31.7944C34.0196 31.9932 33.6358 32.1879 33.2499 32.3783C32.8639 32.5688 32.4759 32.755 32.0859 32.9369C31.6959 33.1189 31.304 33.2966 30.9101 33.47C24.8223 36.0806 17.2513 38.1833 10.585 37.8545C10.1965 37.838 9.80842 37.8131 9.42092 37.7799C9.03339 37.7467 8.6468 37.705 8.2611 37.6551C7.87541 37.6051 7.49095 37.5468 7.10779 37.4802C6.72457 37.4136 6.34298 37.3387 5.96299 37.2557C5.583 37.1726 5.20498 37.0813 4.82893 36.9818C4.45289 36.8823 4.07914 36.7748 3.7077 36.6592C3.33629 36.5436 2.96755 36.42 2.60141 36.2885C2.23534 36.1569 1.8722 36.0174 1.51207 35.8702C0.997025 35.6657 0.490419 35.4529 0 35.1934C0.889229 35.3968 1.7861 35.5576 2.69058 35.6757C6.29722 36.1549 9.96974 36.0389 13.5747 35.6157C20.8197 34.7654 27.6187 32.7274 34.301 29.8275C39.1023 27.7439 43.8273 25.2015 47.9867 22.0025Z" fill="white"/>
<path d="M13.7822 38.7711C16.2905 38.7798 19.4409 38.1294 21.8794 37.5114C30.1548 35.4143 37.8442 31.2931 44.4776 25.9422C45.1817 25.384 45.8655 24.8018 46.529 24.1956C47.0011 23.7611 47.4492 23.2921 47.9335 22.8732C47.3218 23.6201 46.7326 24.3838 46.1116 25.1235C44.8167 26.6424 43.477 28.1205 42.0924 29.5577C40.5846 31.0954 38.8778 32.577 37.1951 33.918C33.8307 36.5991 30.2259 39.013 26.0732 40.2704C24.8897 40.6287 23.7103 40.8883 22.4821 41.0335C21.8549 41.1077 21.2146 41.1169 20.5917 41.2181L20.5362 41.2274C21.0406 41.2954 21.558 41.2916 22.066 41.3328L21.5871 41.3573C21.5969 41.638 21.412 42.1081 21.5419 42.3278C21.2627 42.2572 20.9849 42.1814 20.7084 42.1005C20.432 42.0196 20.1572 41.9336 19.8839 41.8425C19.6106 41.7513 19.3391 41.6552 19.0695 41.5541C18.7997 41.4529 18.5319 41.3467 18.2662 41.2355C18.0003 41.1245 17.7367 41.0084 17.4752 40.8875C17.2137 40.7666 16.9545 40.6409 16.6977 40.5104C16.4408 40.3799 16.1864 40.2447 15.9344 40.1047C15.6826 39.9648 15.4334 39.8202 15.1868 39.671C14.7126 39.3897 14.2204 39.1067 13.7822 38.7711Z" fill="#919191"/>
<path d="M25.9641 6C26.3051 6.70607 26.5732 7.47029 26.8675 8.19857L28.5699 12.4366L32.5872 22.2092L33.975 25.6091C34.3749 26.6007 34.7553 27.588 35.2049 28.559C34.7871 28.7136 34.3837 28.9047 33.9735 29.0782C33.1947 29.4038 32.414 29.7247 31.6314 30.0411C29.7818 30.7785 27.8737 31.4399 25.9762 32.0427C26.0797 31.7755 26.0015 24.4815 25.9982 23.5901C26.0506 23.1629 26.008 22.6797 26.0072 22.2487L26.0013 19.4474L25.9963 15.68C25.9952 15.0043 26.0308 14.2998 25.9695 13.6273C25.9283 12.7117 25.9654 11.7813 25.9654 10.8641L25.9641 6Z" fill="#919191"/>
</svg>
